# Blender v2.82 (sub 7) OBJ File: ''
# www.blender.org
mtllib icosphere.mtl
o Icosphere
v 0.000000 -1.000000 0.000000
v 0.723600 -0.447215 0.525720
v -0.276385 -0.447215 0.850640
v -0.894425 -0.447215 0.000000
v -0.276385 -0.447215 -0.850640
v 0.723600 -0.447215 -0.525720
v 0.276385 0.447215 0.850640
v -0.723600 0.447215 0.525720
v -0.723600 0.447215 -0.525720
v 0.276385 0.447215 -0.850640
v 0.894425 0.447215 0.000000
v 0.000000 1.000000 0.000000
vt 0.997305 0.498179
vt 0.752646 0.663223
vt 0.998453 0.825960
vt 0.994081 0.495542
vt 0.992933 0.167762
vt 0.748274 0.332806
vt 0.249685 0.006035
vt 0.004293 0.171574
vt 0.250837 0.334797
vt 0.496230 0.169259
vt 0.497381 0.498021
vt 0.742774 0.332482
vt 0.743925 0.661245
vt 0.987635 0.166784
vt 0.741828 0.004048
vt 0.742977 0.331827
vt 0.988973 0.495475
vt 0.743166 0.332739
vt 0.744315 0.660518
vt 0.005445 0.500335
vt 0.251989 0.663558
vt 0.498533 0.826782
vt 0.741562 0.004130
vt 0.496904 0.169173
vt 0.742711 0.331909
vt 0.249623 0.668700
vt 0.004964 0.833742
vt 0.250773 0.996480
vt 0.745078 0.990006
vt 0.742628 0.332156
vt 0.496820 0.169420
vt 0.497969 0.497200
vt 0.496095 0.168603
vt 0.250286 0.005866
vt 0.251434 0.333647
vt 0.006597 0.829097
vt 0.253141 0.992321
vt 0.991095 0.824680
vt 0.744551 0.661456
vt 0.745702 0.990219
vn 0.1876 -0.7947 0.5774
vn 0.6071 -0.7947 0.0000
vn -0.4911 -0.7947 0.3568
vn -0.4911 -0.7947 -0.3568
vn 0.1876 -0.7947 -0.5774
vn 0.9822 -0.1876 0.0000
vn 0.3035 -0.1876 0.9342
vn -0.7946 -0.1876 0.5774
vn -0.7946 -0.1876 -0.5774
vn 0.3035 -0.1876 -0.9342
vn 0.7946 0.1876 0.5774
vn -0.3035 0.1876 0.9342
vn -0.9822 0.1876 0.0000
vn -0.3035 0.1876 -0.9342
vn 0.7946 0.1876 -0.5774
vn 0.4911 0.7947 0.3568
vn -0.1876 0.7947 0.5774
vn -0.6071 0.7947 0.0000
vn -0.1876 0.7947 -0.5774
vn 0.4911 0.7947 -0.3568
usemtl None
s off
f 1/1/1 2/2/1 3/3/1
f 2/4/2 1/5/2 6/6/2
f 1/7/3 3/8/3 4/9/3
f 1/10/4 4/9/4 5/11/4
f 1/12/5 5/11/5 6/13/5
f 2/14/6 6/15/6 11/16/6
f 3/17/7 2/18/7 7/19/7
f 4/9/8 3/8/8 8/20/8
f 5/11/9 4/9/9 9/21/9
f 6/13/10 5/11/10 10/22/10
f 2/23/11 11/24/11 7/25/11
f 3/26/12 7/27/12 8/28/12
f 4/9/13 8/20/13 9/21/13
f 5/11/14 9/21/14 10/22/14
f 6/13/15 10/22/15 11/29/15
f 7/30/16 11/31/16 12/32/16
f 8/33/17 7/34/17 12/35/17
f 9/21/18 8/20/18 12/36/18
f 10/22/19 9/21/19 12/37/19
f 11/38/20 10/39/20 12/40/20
